<?xml version="1.0" encoding="UTF-8"?>
<svg xmlns="http://www.w3.org/2000/svg" xmlns:xlink="http://www.w3.org/1999/xlink" viewBox="0 0 480 480" width="480px" height="480px">
<defs>
<radialGradient id="radial0" gradientUnits="userSpaceOnUse" cx="69.445" cy="150.625427" fx="69.445" fy="150.625427" r="160.888077" gradientTransform="matrix(2.790698,0,0,2.790698,0,0)">
<stop offset="0" style="stop-color:rgb(100%,86.666667%,33.333334%);stop-opacity:1;"/>
<stop offset="0.328" style="stop-color:rgb(100%,32.941177%,24.705882%);stop-opacity:1;"/>
<stop offset="0.348" style="stop-color:rgb(98.823529%,32.156864%,27.058825%);stop-opacity:1;"/>
<stop offset="0.504" style="stop-color:rgb(90.196079%,27.843139%,44.313726%);stop-opacity:1;"/>
<stop offset="0.643" style="stop-color:rgb(83.529413%,24.313726%,56.862748%);stop-opacity:1;"/>
<stop offset="0.761" style="stop-color:rgb(80.000001%,22.352941%,64.313728%);stop-opacity:1;"/>
<stop offset="0.841" style="stop-color:rgb(78.431374%,21.568628%,67.058825%);stop-opacity:1;"/>
</radialGradient>
<radialGradient id="radial1" gradientUnits="userSpaceOnUse" cx="42.23317" cy="19.852751" fx="42.23317" fy="19.852751" r="106.829918" gradientTransform="matrix(2.790698,0,0,2.790698,0,0)">
<stop offset="0" style="stop-color:rgb(25.490198%,40.784314%,78.823531%);stop-opacity:1;"/>
<stop offset="0.999" style="stop-color:rgb(25.490198%,40.784314%,78.823531%);stop-opacity:0;"/>
</radialGradient>
</defs>
<g id="surface27900867">
<path style=" stroke:none;fill-rule:nonzero;fill:url(#radial0);" d="M 340.171875 419.898438 L 140.171875 420.089844 C 96.171875 420.128906 60.140625 384.171875 60.089844 340.171875 L 59.898438 140.171875 C 59.859375 96.171875 95.820312 60.140625 139.820312 60.089844 L 339.820312 59.898438 C 383.820312 59.859375 419.851562 95.820312 419.898438 139.820312 L 420.089844 339.820312 C 420.140625 383.828125 384.171875 419.859375 340.171875 419.898438 Z M 340.171875 419.898438 "/>
<path style=" stroke:none;fill-rule:nonzero;fill:url(#radial1);" d="M 340.171875 419.898438 L 140.171875 420.089844 C 96.171875 420.128906 60.140625 384.171875 60.089844 340.171875 L 59.898438 140.171875 C 59.859375 96.171875 95.820312 60.140625 139.820312 60.089844 L 339.820312 59.898438 C 383.820312 59.859375 419.851562 95.820312 419.898438 139.820312 L 420.089844 339.820312 C 420.140625 383.828125 384.171875 419.859375 340.171875 419.898438 Z M 340.171875 419.898438 "/>
<path style=" stroke:none;fill-rule:nonzero;fill:rgb(100%,100%,100%);fill-opacity:1;" d="M 240 310 C 201.410156 310 170 278.601562 170 240 C 170 201.398438 201.410156 170 240 170 C 278.589844 170 310 201.398438 310 240 C 310 278.601562 278.589844 310 240 310 Z M 240 190 C 212.429688 190 190 212.429688 190 240 C 190 267.570312 212.429688 290 240 290 C 267.570312 290 290 267.570312 290 240 C 290 212.429688 267.570312 190 240 190 Z M 240 190 "/>
<path style=" stroke:none;fill-rule:nonzero;fill:rgb(100%,100%,100%);fill-opacity:1;" d="M 330 165 C 330 173.285156 323.285156 180 315 180 C 306.714844 180 300 173.285156 300 165 C 300 156.714844 306.714844 150 315 150 C 323.285156 150 330 156.714844 330 165 Z M 330 165 "/>
<path style=" stroke:none;fill-rule:nonzero;fill:rgb(100%,100%,100%);fill-opacity:1;" d="M 300 370 L 180 370 C 141.410156 370 110 338.601562 110 300 L 110 180 C 110 141.398438 141.410156 110 180 110 L 300 110 C 338.589844 110 370 141.398438 370 180 L 370 300 C 370 338.601562 338.589844 370 300 370 Z M 180 130 C 152.429688 130 130 152.429688 130 180 L 130 300 C 130 327.570312 152.429688 350 180 350 L 300 350 C 327.570312 350 350 327.570312 350 300 L 350 180 C 350 152.429688 327.570312 130 300 130 Z M 180 130 "/>
</g>
</svg>
